<?xml version="1.0" encoding="utf-8"?>
<!-- Generator: Adobe Illustrator 14.0.0, SVG Export Plug-In . SVG Version: 6.00 Build 43363)  -->
<!DOCTYPE svg PUBLIC "-//W3C//DTD SVG 1.1//EN" "http://www.w3.org/Graphics/SVG/1.1/DTD/svg11.dtd">
<svg version="1.1" id="Layer_1" xmlns="http://www.w3.org/2000/svg" xmlns:xlink="http://www.w3.org/1999/xlink" x="0px" y="0px"
	 width="290px" height="432px" viewBox="0 0 290 432" enable-background="new 0 0 290 432" xml:space="preserve">
<g>
	<path fill-rule="evenodd" clip-rule="evenodd" d="M129.963,4.005c10,0,20,0,30,0c55.823,9.765,95.305,37.962,115,86
		c5.992,14.615,12.21,37.892,9,55c-4.313,22.984-32.67,32.959-55,39c-52.188,14.117-115.994,12.794-167,0
		c-23.583-5.915-50.324-15.853-57-39c0-4,0-8,0-12C15.327,58.702,57.91,16.619,129.963,4.005z M136.963,29.005
		c-52.014,4.047-82.878,35.264-100,76c56.69-23.775,160.791-21.043,216-1C233.85,62.163,197.014,24.333,136.963,29.005z
		 M55.963,156.005c47.211,15.92,131.332,17.416,177-1C185.61,136.669,101.997,136.072,55.963,156.005z"/>
	<path fill-rule="evenodd" clip-rule="evenodd" d="M4.963,364.005c0-61.667,0-123.333,0-185c10.197,8.411,26.833,11.617,31,26
		c6.505,22.46-5.751,64.411,3,86c8.206,20.244,47.394,26.23,56-2c3.71-12.17-0.15-21.415,3-29c7.938-19.111,41.588-19.844,48,2
		c7.066,24.069-13.544,107.039,18,104c12.214-1.177,13-14.28,13-31c0-16.531,0-33.087,0-44c0-23.573-8.618-75.048,17-72
		c22.433,2.669,4.785,29.983,13,53c2.482,6.956,8.715,11.886,17,13c41.915,5.634,17.402-56.849,28-82
		c4.735-11.236,25.311-16.917,33-24c0,30.159,0,63.361,0,97c0,33.008,5.291,69.608-2,95c-6.442,22.435-39.786,36.409-65,43
		c-28.46,7.439-63.757,10.003-96,8C68.326,418.673,16.719,403.142,4.963,364.005z"/>
</g>
</svg>
